<svg width="200" height="184" viewBox="0 0 200 184" fill="none" xmlns="http://www.w3.org/2000/svg">
<path d="M32.4799 18.189C57.9054 11.7745 87.8668 18.4819 121.869 38.1899C110.747 53.6251 89.6751 78.2421 59.8558 78.313C57.3103 78.313 54.6938 78.1617 52.017 77.7778C-12.6227 68.7875 10.409 30.0071 12.5101 26.7241C12.5112 26.7219 12.5175 26.7084 12.5297 26.6841C12.5701 26.6336 12.6211 26.6135 12.6615 26.5933C18.2475 23.1286 24.8131 20.1082 32.4799 18.189ZM27.8744 12.522C46.0369 -0.08474 79.5332 -11.7926 123.566 23.1284C126.355 25.3596 127.22 29.1831 125.792 32.3403L125.647 32.644L125.637 32.6538C89.8878 11.8447 58.098 4.81477 30.8441 11.6938C29.8442 11.9464 28.8541 12.2089 27.8744 12.522ZM13.1996 25.7983V25.7993V25.7983Z" fill="url(#paint0_linear_16_37)"/>
<path d="M12.6411 26.5024C12.6411 26.5228 12.6415 26.5731 12.6616 26.5933C16.48 50.7862 35.0664 70.6459 59.8452 78.313C66.9971 80.5454 74.6847 81.7573 82.6548 81.7573C102.141 81.7573 119.788 74.5655 132.567 62.9487C135.961 59.8882 141.476 62.1706 141.476 66.7261L141.486 66.7163V66.8481C141.486 86.8186 133.223 104.85 119.91 117.699C115.394 122.103 110.282 125.871 104.716 128.912C93.2814 135.185 79.9371 138.387 65.7749 137.427C39.916 135.66 17.6505 119.682 6.91748 97.2817C20.5392 113.145 36.6027 123.55 54.9966 128.396C63.3708 130.608 71.6139 131.548 80.0386 131.548C88.4632 131.548 96.7566 130.568 104.707 128.912C110.272 125.871 115.384 122.103 119.899 117.699V117.689C100.706 124.103 78.3615 127.629 56.6938 121.912C34.4468 116.044 15.7535 101.232 0.855957 77.7886C0.854882 77.7815 0.854101 77.7741 0.853027 77.7671C0.560108 75.9388 0.337855 74.0599 0.206543 72.1812C-1.07631 55.251 3.68154 39.4823 12.5103 26.7241C12.5115 26.7217 12.5177 26.7082 12.5298 26.6841C12.55 26.6134 12.6007 26.573 12.6411 26.5024Z" fill="url(#paint1_linear_16_37)"/>
<path d="M172.134 120.022C170.983 120.568 169.932 119.144 170.75 118.184C185.064 101.355 191.842 80.9092 194.529 61.1708C195.57 53.524 194.408 45.7458 191.115 38.7656L190.994 38.503C187.852 31.836 179.114 30.2803 173.781 35.3715C170.013 38.9676 166.508 41.9981 163.406 44.5033C160.447 46.8873 158.891 50.6551 159.517 54.4028C160.861 62.4436 161.053 70.7572 159.942 79.1414C153.477 128.033 107.404 160.762 59.6637 151.6C35.9049 147.044 16.3888 132.983 4.24673 114.133C3.65074 113.214 2.22643 113.901 2.59008 114.931C14.0654 148.307 42.5821 174.783 79.7254 181.914C102.181 186.228 124.314 182.783 143.405 173.49C144.325 173.045 144.042 171.682 143.022 171.621C141.183 171.51 139.607 171.308 138.314 171.076C137.072 170.853 137.011 169.106 138.244 168.793C150.941 165.6 162.204 159.843 172.124 152.66C185.428 138.912 195.034 121.295 198.913 101.102C199.358 98.7889 199.711 96.4757 199.994 94.1725C200.075 93.4856 199.156 93.1725 198.792 93.7483C188.145 110.446 177.821 117.295 172.134 119.992V120.022Z" fill="url(#paint2_linear_16_37)"/>
<defs>
<linearGradient id="paint0_linear_16_37" x1="6.82215" y1="39.1489" x2="126.465" y2="39.1489" gradientUnits="userSpaceOnUse">
<stop stop-color="#707070"/>
<stop offset="0.52" stop-color="#C4C4C4"/>
<stop offset="0.85" stop-color="#E3E3E3"/>
<stop offset="1" stop-color="#E8E8E8"/>
</linearGradient>
<linearGradient id="paint1_linear_16_37" x1="-0.00622779" y1="82.0406" x2="141.487" y2="82.0406" gradientUnits="userSpaceOnUse">
<stop stop-color="white"/>
<stop offset="0.15" stop-color="#D9D9D9"/>
<stop offset="0.48" stop-color="#ADADAD"/>
<stop offset="1" stop-color="#747474"/>
</linearGradient>
<linearGradient id="paint2_linear_16_37" x1="253.548" y1="56.5683" x2="-23.2341" y2="173.746" gradientUnits="userSpaceOnUse">
<stop stop-color="#848484"/>
<stop offset="0.3125" stop-color="#ACACAC"/>
<stop offset="0.65" stop-color="#E3E3E3"/>
</linearGradient>
</defs>
</svg>
